<svg width="256" height="257" viewBox="0 0 256 257" fill="none" xmlns="http://www.w3.org/2000/svg">
<path d="M232.355 142C232.355 199.438 185.792 246 128.355 246C70.9169 246 24.3545 199.438 24.3545 142C24.3545 84.5624 70.9169 38 128.355 38C185.792 38 232.355 84.5624 232.355 142Z" stroke="black" stroke-width="5"/>
<path d="M198.355 142C198.355 159.135 192.198 174.832 181.976 187C181.976 187 149.879 187 128.355 187C106.83 187 74.7334 187 74.7334 187C64.5113 174.832 58.3545 159.135 58.3545 142C58.3545 103.34 89.6946 72 128.355 72C167.014 72 198.355 103.34 198.355 142Z" stroke="black" stroke-width="5"/>
<path d="M100.588 97.0843L88 186H167L153.11 97.0843L127.5 78L100.588 97.0843Z" fill="white" stroke="black" stroke-width="5"/>
<path d="M98 177L95.524 176.655L95.127 179.5H98V177ZM108.355 102.783L106.821 100.809L106.019 101.432L105.879 102.438L108.355 102.783ZM145.405 102.783L147.88 102.43L147.742 101.467L146.99 100.85L145.405 102.783ZM156 177V179.5H158.882L158.475 176.647L156 177ZM127.377 88L128.962 86.0668L127.418 84.8012L125.842 86.0261L127.377 88ZM100.476 177.345L110.831 103.129L105.879 102.438L95.524 176.655L100.476 177.345ZM142.93 103.137L153.525 177.353L158.475 176.647L147.88 102.43L142.93 103.137ZM98 179.5H156V174.5H98V179.5ZM109.889 104.757L128.911 89.9739L125.842 86.0261L106.821 100.809L109.889 104.757ZM125.791 89.9332L143.82 104.717L146.99 100.85L128.962 86.0668L125.791 89.9332ZM124.877 88.4009V177H129.877V88.4009H124.877Z" fill="black"/>
<path d="M81.8557 77.1581C81.1934 77.6438 80.4944 77.9927 79.7587 78.2048C79.023 78.4169 78.3004 78.5104 77.5908 78.4851C76.893 78.4512 76.2405 78.2931 75.6334 78.0109C75.0294 77.7081 74.5322 77.2906 74.1419 76.7584L76.8385 74.7808C76.9166 74.8873 77.055 74.9768 77.2537 75.0493C77.4642 75.1132 77.7059 75.1451 77.9787 75.1451C78.2633 75.1364 78.5704 75.084 78.9 74.9878C79.2209 74.8798 79.547 74.7043 79.8781 74.4615C80.4104 74.0712 80.7869 73.7041 81.0076 73.3604C81.2197 73.0047 81.3506 72.6996 81.4003 72.4449C81.4413 72.1784 81.4362 71.973 81.3849 71.8287C81.3368 71.6639 81.3128 71.5815 81.3128 71.5815C81.2087 71.4396 81.0928 71.3064 80.9651 71.1818C80.8492 71.0485 80.7005 70.9574 80.5192 70.9086C80.2061 70.8289 79.8095 70.8833 79.3293 71.0718C78.8405 71.2484 78.3004 71.5536 77.709 71.9872C77.2596 72.3168 76.8212 72.5746 76.3938 72.7607C75.9783 72.9381 75.5911 73.0675 75.2324 73.1487C74.865 73.2181 74.5243 73.2496 74.2105 73.2433C73.8967 73.237 73.6184 73.2047 73.3755 73.1463C72.9071 73.0533 72.4892 72.905 72.1218 72.7016C71.7457 72.4864 71.4283 72.2644 71.1697 72.0357C70.9024 71.7953 70.6891 71.5788 70.5299 71.3864C70.3737 71.1735 70.261 71.0198 70.1916 70.9252C70.1309 70.8424 70.0473 70.7036 69.9409 70.5088C69.8257 70.3023 69.7213 70.0606 69.6274 69.7838C69.5454 69.4984 69.4784 69.1838 69.4264 68.84C69.3775 68.4757 69.3846 68.0886 69.4476 67.6786C69.6779 66.182 70.5618 64.87 72.0993 63.7424C73.6132 62.6323 75.1212 62.2084 76.6232 62.471C77.1444 62.5617 77.6092 62.7119 78.0177 62.9216C78.4261 63.1313 78.7699 63.3521 79.049 63.5839C79.3281 63.8158 79.5473 64.0279 79.7066 64.2202C79.8659 64.4126 79.9629 64.5325 79.9976 64.5798L77.2359 66.4686L77.2619 66.5041C77.1578 66.3622 77.0171 66.2199 76.8397 66.0771C76.6536 65.9226 76.4332 65.8205 76.1785 65.7708C75.9152 65.7093 75.6085 65.7251 75.2584 65.8181C74.9083 65.9112 74.5144 66.1181 74.0768 66.4391C73.6511 66.7513 73.3384 67.0442 73.1389 67.3178C72.9513 67.5828 72.8299 67.8264 72.7747 68.0488C72.7313 68.2624 72.7337 68.4517 72.7818 68.6165C72.8299 68.7813 72.8843 68.9051 72.945 68.9878L73.036 69.112L73.0313 69.1428C73.1181 69.2611 73.2166 69.3707 73.327 69.4716C73.42 69.5488 73.5277 69.6336 73.6499 69.7259C73.7634 69.8063 73.9022 69.8591 74.0662 69.8843C74.5377 69.9569 75.0928 69.759 75.7315 69.2906C77.411 68.059 78.9749 67.4759 80.4234 67.5413C81.8631 67.5949 83.0687 68.2841 84.0401 69.6087C84.3177 69.9872 84.5266 70.4705 84.667 71.0588C84.8192 71.6383 84.8373 72.2707 84.7214 72.9558C84.6173 73.6324 84.3414 74.3349 83.8935 75.0635C83.4457 75.792 82.7664 76.4902 81.8557 77.1581Z" fill="black"/>
<path d="M94.1202 51.7901L94.1325 63.9059L96.2967 68.5284L93.2482 69.9556L91.1027 65.3729L81.767 57.5736L85.0545 56.0344L91.275 61.7457L90.8725 53.3106L94.1202 51.7901Z" fill="black"/>
<path d="M104.932 58.3182L106.37 64.8274L103.019 65.5675L99.5316 49.778L103.012 49.0094L109.647 58.8542L111.454 47.1449L114.913 46.3811L118.4 62.1706L115.049 62.9107L113.635 56.509L112.406 63.4942L109.098 64.2249L104.932 58.3182Z" fill="black"/>
<path d="M131.871 53.4109C132.429 53.7327 132.862 54.1207 133.171 54.5749C133.48 55.0292 133.7 55.4688 133.833 55.894C133.98 56.3044 134.069 56.6636 134.098 56.9716C134.128 57.2795 134.143 57.4482 134.143 57.4775C134.144 58.2548 134.028 58.9077 133.794 59.436C133.575 59.9497 133.275 60.3755 132.894 60.7134C132.528 61.0512 132.103 61.3159 131.619 61.5072C131.135 61.6839 130.637 61.8167 130.124 61.9054C129.61 61.9795 129.097 62.017 128.584 62.0177C128.071 62.0331 127.601 62.0412 127.176 62.0418L121.588 62.05L121.564 45.924L127.152 45.9158C127.695 45.915 128.282 46.0095 128.913 46.1992C129.558 46.3743 130.153 46.674 130.696 47.0986C131.239 47.5084 131.695 48.0504 132.062 48.7246C132.43 49.384 132.614 50.1904 132.616 51.1438C132.616 51.4371 132.595 51.6865 132.551 51.8919C132.522 52.0826 132.471 52.266 132.398 52.4421C132.339 52.6035 132.266 52.7576 132.178 52.9044C132.091 53.0512 131.988 53.22 131.871 53.4109ZM125.028 52.3869L127.162 52.3838C127.338 52.3835 127.543 52.3906 127.778 52.4049C128.012 52.4045 128.225 52.3822 128.416 52.3379C128.621 52.279 128.789 52.1614 128.921 51.9852C129.068 51.809 129.14 51.5302 129.14 51.1489C129.139 50.7382 129.058 50.4157 128.896 50.1812C128.735 49.9468 128.544 49.7711 128.324 49.6541C128.103 49.5371 127.883 49.4641 127.663 49.435C127.443 49.406 127.275 49.3916 127.157 49.3918L125.023 49.3949L125.028 52.3869ZM127.457 58.5874C128.454 58.5859 129.173 58.4968 129.612 58.3202C130.067 58.1289 130.294 57.7692 130.293 57.2412C130.292 56.7279 130.064 56.3835 129.609 56.2082C129.169 56.0328 128.45 55.9459 127.453 55.9474L125.033 55.9509L125.037 58.5909L127.457 58.5874Z" fill="black"/>
<path d="M138.661 46.5768L141.973 47.0323L139.777 63.008L136.464 62.5525L138.661 46.5768Z" fill="black"/>
<path d="M149.804 65.3113C148.734 64.9965 147.788 64.4963 146.966 63.8107C146.157 63.1293 145.505 62.3332 145.009 61.4226C144.526 60.5162 144.218 59.5386 144.083 58.4899C143.953 57.4271 144.045 56.361 144.36 55.2918C144.675 54.2225 145.173 53.2836 145.854 52.4752C146.54 51.6526 147.331 50.9912 148.228 50.4907C149.138 49.9943 150.118 49.6789 151.167 49.5443C152.229 49.4138 153.295 49.506 154.365 49.8209C155.434 50.1357 156.373 50.6338 157.181 51.3153C158.004 52.0008 158.656 52.7969 159.138 53.7033C159.635 54.6139 159.948 55.6006 160.079 56.6634C160.213 57.7121 160.123 58.7711 159.808 59.8404C159.493 60.9097 158.993 61.8556 158.308 62.6781C157.626 63.4866 156.83 64.1389 155.92 64.6353C155.023 65.1358 154.043 65.4512 152.981 65.5817C151.932 65.7163 150.873 65.6262 149.804 65.3113ZM153.426 53.0076C152.793 52.8212 152.167 52.7668 151.548 52.8444C150.929 52.922 150.353 53.1118 149.821 53.4137C149.293 53.7016 148.828 54.0847 148.428 54.563C148.027 55.0412 147.733 55.5969 147.547 56.2301C147.36 56.8632 147.306 57.4893 147.384 58.1085C147.461 58.7276 147.642 59.3083 147.926 59.8505C148.213 60.3786 148.597 60.8431 149.075 61.2438C149.553 61.6446 150.109 61.9382 150.742 62.1246C151.361 62.3069 151.98 62.3592 152.599 62.2816C153.218 62.204 153.792 62.0212 154.32 61.7333C154.867 61.4355 155.34 61.0475 155.741 60.5692C156.142 60.0909 156.435 59.5352 156.622 58.9021C156.808 58.269 156.862 57.6428 156.785 57.0237C156.707 56.4046 156.517 55.8289 156.215 55.2966C155.932 54.7543 155.551 54.2829 155.072 53.8821C154.594 53.4814 154.045 53.1899 153.426 53.0076Z" fill="black"/>
<path d="M163.351 71.046C162.625 70.6619 162.006 70.1851 161.494 69.6157C160.982 69.0463 160.583 68.4368 160.296 67.7872C160.022 67.1445 159.88 66.4884 159.869 65.819C159.878 65.1434 160.036 64.5139 160.345 63.9306L163.301 65.4944C163.239 65.611 163.219 65.7746 163.24 65.985C163.275 66.2023 163.352 66.4337 163.471 66.6792C163.603 66.9316 163.784 67.185 164.014 67.4396C164.251 67.6813 164.551 67.8981 164.914 68.0902C165.498 68.3988 165.992 68.5775 166.398 68.6262C166.81 68.6619 167.142 68.6466 167.393 68.5802C167.651 68.5008 167.833 68.4066 167.941 68.2975C168.068 68.1823 168.132 68.1248 168.132 68.1248C168.214 67.9692 168.283 67.8068 168.34 67.6375C168.409 67.475 168.426 67.3016 168.391 67.1171C168.326 66.8007 168.104 66.4675 167.725 66.1176C167.353 65.7548 166.843 65.4019 166.194 65.059C165.702 64.7983 165.279 64.5163 164.925 64.213C164.584 63.9164 164.299 63.6245 164.069 63.3371C163.846 63.0367 163.669 62.744 163.538 62.4589C163.407 62.1737 163.314 61.9092 163.261 61.6652C163.14 61.2032 163.092 60.7625 163.114 60.3431C163.144 59.9107 163.205 59.5283 163.298 59.1959C163.398 58.8504 163.5 58.5641 163.603 58.3369C163.727 58.1035 163.816 57.935 163.871 57.8312C163.919 57.7405 164.007 57.6048 164.136 57.424C164.272 57.2303 164.444 57.0309 164.652 56.8257C164.873 56.6274 165.127 56.4298 165.413 56.233C165.72 56.0301 166.071 55.8676 166.468 55.7455C167.915 55.2998 169.481 55.5228 171.166 56.4145C172.826 57.2924 173.865 58.4644 174.284 59.9306C174.43 60.4391 174.497 60.9229 174.487 61.3819C174.476 61.8409 174.427 62.2466 174.341 62.5989C174.254 62.9512 174.158 63.2409 174.055 63.4682C173.951 63.6954 173.886 63.835 173.858 63.8868L170.954 62.2258L170.933 62.2647C171.016 62.1091 171.082 61.9204 171.133 61.6985C171.191 61.4636 171.187 61.2208 171.121 60.9699C171.061 60.7061 170.913 60.437 170.677 60.1626C170.44 59.8882 170.082 59.6241 169.602 59.3703C169.136 59.1234 168.736 58.9698 168.402 58.9097C168.082 58.8564 167.81 58.8534 167.586 58.9008C167.375 58.955 167.205 59.0396 167.078 59.1548C166.951 59.27 166.863 59.3729 166.815 59.4637L166.743 59.5998L166.713 59.609C166.645 59.7386 166.589 59.8751 166.546 60.0185C166.518 60.1359 166.488 60.2697 166.459 60.4199C166.436 60.5572 166.449 60.7051 166.498 60.8637C166.638 61.3196 167.058 61.7328 167.758 62.1031C169.599 63.0771 170.806 64.23 171.379 65.5619C171.959 66.8809 171.865 68.2663 171.097 69.7183C170.877 70.1332 170.533 70.532 170.065 70.9149C169.61 71.3047 169.049 71.5969 168.382 71.7915C167.728 71.9929 166.975 72.0511 166.124 71.9659C165.273 71.8808 164.349 71.5741 163.351 71.046Z" fill="black"/>
<path d="M187.659 72.0917L181.737 67.4145L179.705 69.9869L185.402 74.4868L183.316 77.1283L177.619 72.6283L175.901 74.8037L181.822 79.4808L179.736 82.1223L171.19 75.3724L181.185 62.7177L189.731 69.4675L187.659 72.0917Z" fill="black"/>
<path d="M127.038 223.559L84.575 196.5H171.998L127.038 223.559Z" stroke="black" stroke-width="5" stroke-linejoin="round"/>
<circle cx="127" cy="216" r="17.5" fill="#FFFEFE" stroke="black" stroke-width="5"/>
</svg>
