<svg width="55" height="55" viewBox="0 0 55 55" fill="none" xmlns="http://www.w3.org/2000/svg">
<path d="M27.5001 27.5C33.8283 27.5 38.9584 22.3699 38.9584 16.0416C38.9584 9.71338 33.8283 4.58331 27.5001 4.58331C21.1718 4.58331 16.0417 9.71338 16.0417 16.0416C16.0417 22.3699 21.1718 27.5 27.5001 27.5Z" stroke="black" stroke-width="5"/>
<path d="M38.9584 32.0833H39.7651C41.4404 32.0838 43.058 32.696 44.3138 33.805C45.5697 34.914 46.3773 36.4434 46.5851 38.1058L47.4811 45.265C47.5617 45.9099 47.5042 46.5646 47.3124 47.1857C47.1207 47.8067 46.799 48.3798 46.3688 48.867C45.9386 49.3542 45.4097 49.7443 44.8172 50.0115C44.2247 50.2787 43.5821 50.4168 42.9321 50.4166H12.068C11.418 50.4168 10.7755 50.2787 10.183 50.0115C9.59045 49.7443 9.06154 49.3542 8.63133 48.867C8.20113 48.3798 7.87947 47.8067 7.68769 47.1857C7.49592 46.5646 7.43842 45.9099 7.51902 45.265L8.41277 38.1058C8.62061 36.4426 9.42893 34.9126 10.6857 33.8035C11.9425 32.6944 13.5612 32.0827 15.2374 32.0833H16.0417" stroke="black" stroke-width="5" stroke-linecap="round" stroke-linejoin="round"/>
</svg>
